<svg width="35" height="26" viewBox="0 0 35 26" fill="none" xmlns="http://www.w3.org/2000/svg">
<path fill-rule="evenodd" clip-rule="evenodd" d="M14.6332 8.36762C14.84 8.11288 15.2139 8.07426 15.4685 8.28152C15.7228 8.48878 15.7613 8.86335 15.5545 9.11854C15.5505 9.12386 14.0725 10.8995 16.3353 12.1617C19.534 13.9458 19.5008 16.1364 19.5008 16.1426C19.5008 16.4724 19.2342 16.7396 18.9051 16.7396C18.576 16.7396 18.3094 16.4724 18.3094 16.1426C18.3094 16.1382 18.3359 14.6395 15.7578 13.2015C12.2446 11.2413 14.6266 8.37605 14.6332 8.36762ZM31.5329 15.5147L26.3039 15.1405L22.8479 9.37195L21.1201 6.48366V5.68348C21.1205 4.8154 20.4185 4.11108 19.5522 4.11064C19.3582 4.11019 19.1655 4.14659 18.9848 4.21671L15.8623 5.42386C14.8254 5.81618 14.1287 5.85346 14.3914 4.87487C14.6877 3.81329 14.2067 2.68824 13.2358 2.17076L9.33688 0.0720098C9.05342 -0.0806592 8.69998 0.0169775 8.53433 0.293468L2.81547 9.46914L2.69455 9.39902C2.40577 9.2326 2.03683 9.33245 1.87118 9.62226C1.86764 9.62847 1.86409 9.63468 1.86055 9.6409L0.0703063 13.0183C-0.0838266 13.3098 0.0238007 13.6715 0.311693 13.8313L22.0865 25.9246C22.176 25.9738 22.2765 26 22.3788 26H31.3792C33.3781 25.9982 34.9978 24.3752 35 22.3719V19.2444C34.9929 17.285 33.483 15.6602 31.5329 15.5147ZM10.5704 2.1073L12.6649 3.23368C13.1353 3.48265 13.37 4.02498 13.2309 4.53935C13.1291 5.58363 12.3761 6.01767 11.6546 5.56765L9.28107 4.14171C8.14899 3.45026 8.55603 1.02397 10.5704 2.1073ZM6.91239 7.36994L7.99442 8.17634C9.0047 8.93658 9.52069 10.1885 9.33998 11.4419C9.09018 12.4457 8.62424 12.7844 7.92975 12.4182L4.89537 10.6656C4.20842 10.1881 4.19646 9.51131 4.60748 8.90951L5.3932 7.66641C5.58277 7.38903 6.0806 6.76149 6.91239 7.36994ZM31.3788 24.7906H22.5338L3.05419 13.9715C0.50303 12.5545 2.79155 10.8139 4.08883 11.6021L22.6291 22.2916C22.7207 22.3444 22.8248 22.3723 22.9307 22.3723H31.6622C34.0358 22.2951 33.1309 24.7906 31.3788 24.7906ZM31.4572 21.1625H23.0919C19.3134 18.9826 15.5961 16.8376 11.8619 14.6839C10.2355 13.6422 10.4951 12.7591 10.5407 11.5444C10.7644 9.87212 10.065 8.21007 8.71415 7.20263L7.94747 6.65054C6.89511 5.81441 6.71884 4.01833 8.81159 5.27652L12.7765 7.66019C12.8483 7.70147 12.928 7.72721 13.0104 7.73608C13.025 7.73608 13.0374 7.74097 13.052 7.74185C13.0662 7.74319 13.0755 7.74629 13.087 7.74629C13.1614 7.74674 13.2358 7.73298 13.3054 7.70591L19.418 5.34353C19.53 5.30092 19.6549 5.31557 19.7541 5.38303C19.8533 5.45138 19.9123 5.56455 19.9118 5.68526C19.9118 6.77702 19.2758 6.75616 18.4648 7.56744C15.9314 10.1016 19.1327 10.8006 23.6579 16.6956C23.8139 16.9002 24.0827 16.9828 24.3267 16.9007L26.0226 16.3339L31.4456 16.7223C32.7655 16.8203 33.7878 17.9188 33.7926 19.2448C33.8391 20.4866 33.0769 21.1625 31.4572 21.1625Z" fill="black"/>
</svg>
